# xmcd
#
# Track frame offsets:
#	150
#	13960
#	32893
#	68230
#	90834
#	104392
#	119057
#	135602
#	157614
#	174160
#	196160
#
# Disc length: 3050 seconds
#
# Revision: 1
# Processed by: cddbd v1.5.2PL0 Copyright (c) Steve Scherf et al.
# Submitted via: audiograbber 1.83.01
#
DISCID=860be80b
DTITLE=Julian Sas - Where will it end
DYEAR=1996
DGENRE=Blues
TTITLE0=Turpentine moan
TTITLE1=Honey babe
TTITLE2=Make up your mind
TTITLE3=Goin' down
TTITLE4=Tryin' to do right
TTITLE5=Travelling home
TTITLE6=Home feeling
TTITLE7=Voodoo love
TTITLE8=I don't know
TTITLE9=Stranger blues
TTITLE10=Serves me right to suffer
EXTD=
EXTT0=
EXTT1=
EXTT2=
EXTT3=
EXTT4=
EXTT5=
EXTT6=
EXTT7=
EXTT8=
EXTT9=
EXTT10=
PLAYORDER=
